<mxfile host="app.diagrams.net" modified="2021-12-21T16:16:28.186Z" agent="5.0 (Macintosh; Intel Mac OS X 10_15_7) AppleWebKit/537.36 (KHTML, like Gecko) Chrome/96.0.4664.110 Safari/537.36" etag="28Z4U8B6IztVTKDIWB4o" version="16.0.0" type="github">
  <diagram id="l4uym2iR1F8JYUql0COY" name="Page-1">
    <mxGraphModel dx="2163" dy="1265" grid="1" gridSize="10" guides="1" tooltips="1" connect="1" arrows="1" fold="1" page="1" pageScale="1" pageWidth="850" pageHeight="1100" math="0" shadow="0">
      <root>
        <mxCell id="0" />
        <mxCell id="1" parent="0" />
        <mxCell id="6EeHm703AvGRG8vDZVF_-1" value="&lt;h1&gt;Training&lt;/h1&gt;&lt;p&gt;In order to generate a connectome model that can be simulated, we&#39;ll first need to be able to automatically produce such a thing. To achieve this, we need a dataset that includes the raw electron microscope images, the ground truth instance segmentation masks, and a ground truth dataset of localized feature properties.&lt;/p&gt;&lt;p&gt;The feature properties include things such as the cell type and any other relevant data (subtype, resting potential, ion channels, capacitance, etc). The goal is to be able to take in a 3D map and automatically identify relevant cells (classification), then predict the cell properties (regression).&lt;/p&gt;" style="text;html=1;strokeColor=none;fillColor=none;spacing=5;spacingTop=-20;whiteSpace=wrap;overflow=hidden;rounded=0;" vertex="1" parent="1">
          <mxGeometry x="10" y="10" width="810" height="140" as="geometry" />
        </mxCell>
        <mxCell id="6EeHm703AvGRG8vDZVF_-2" value="" style="group" vertex="1" connectable="0" parent="1">
          <mxGeometry x="30" y="215" width="200" height="130" as="geometry" />
        </mxCell>
        <mxCell id="6EeHm703AvGRG8vDZVF_-3" value="" style="group" vertex="1" connectable="0" parent="6EeHm703AvGRG8vDZVF_-2">
          <mxGeometry x="40" y="30" width="100" height="100" as="geometry" />
        </mxCell>
        <mxCell id="6EeHm703AvGRG8vDZVF_-4" value="" style="whiteSpace=wrap;html=1;aspect=fixed;" vertex="1" parent="6EeHm703AvGRG8vDZVF_-3">
          <mxGeometry width="80" height="80" as="geometry" />
        </mxCell>
        <mxCell id="6EeHm703AvGRG8vDZVF_-5" value="" style="whiteSpace=wrap;html=1;aspect=fixed;" vertex="1" parent="6EeHm703AvGRG8vDZVF_-3">
          <mxGeometry x="10" y="10" width="80" height="80" as="geometry" />
        </mxCell>
        <mxCell id="6EeHm703AvGRG8vDZVF_-6" value="" style="whiteSpace=wrap;html=1;aspect=fixed;" vertex="1" parent="6EeHm703AvGRG8vDZVF_-3">
          <mxGeometry x="20" y="20" width="80" height="80" as="geometry" />
        </mxCell>
        <mxCell id="6EeHm703AvGRG8vDZVF_-7" value="X: Feature Dataset&lt;br&gt;(Raw Electron Microscope Images)" style="text;html=1;strokeColor=none;fillColor=none;align=center;verticalAlign=middle;whiteSpace=wrap;rounded=0;" vertex="1" parent="6EeHm703AvGRG8vDZVF_-2">
          <mxGeometry x="-6.869999999999999" width="193.75" height="30" as="geometry" />
        </mxCell>
        <mxCell id="6EeHm703AvGRG8vDZVF_-8" value="" style="group" vertex="1" connectable="0" parent="1">
          <mxGeometry x="335" y="215" width="130" height="130" as="geometry" />
        </mxCell>
        <mxCell id="6EeHm703AvGRG8vDZVF_-9" value="" style="shape=cube;whiteSpace=wrap;html=1;boundedLbl=1;backgroundOutline=1;darkOpacity=0.05;darkOpacity2=0.1;size=20;" vertex="1" parent="6EeHm703AvGRG8vDZVF_-8">
          <mxGeometry y="30" width="100" height="100" as="geometry" />
        </mxCell>
        <mxCell id="6EeHm703AvGRG8vDZVF_-10" value="3D Raw Feature Map" style="text;html=1;strokeColor=none;fillColor=none;align=center;verticalAlign=middle;whiteSpace=wrap;rounded=0;" vertex="1" parent="6EeHm703AvGRG8vDZVF_-8">
          <mxGeometry x="-15" width="130" height="30" as="geometry" />
        </mxCell>
        <mxCell id="6EeHm703AvGRG8vDZVF_-11" value="" style="group" vertex="1" connectable="0" parent="1">
          <mxGeometry x="790" y="295" width="130" height="130" as="geometry" />
        </mxCell>
        <mxCell id="6EeHm703AvGRG8vDZVF_-12" value="" style="shape=cube;whiteSpace=wrap;html=1;boundedLbl=1;backgroundOutline=1;darkOpacity=0.05;darkOpacity2=0.1;size=20;" vertex="1" parent="6EeHm703AvGRG8vDZVF_-11">
          <mxGeometry y="30" width="100" height="100" as="geometry" />
        </mxCell>
        <mxCell id="6EeHm703AvGRG8vDZVF_-13" value="3D Predicted Label Map" style="text;html=1;strokeColor=none;fillColor=none;align=center;verticalAlign=middle;whiteSpace=wrap;rounded=0;" vertex="1" parent="6EeHm703AvGRG8vDZVF_-11">
          <mxGeometry x="-15" width="130" height="30" as="geometry" />
        </mxCell>
        <mxCell id="6EeHm703AvGRG8vDZVF_-14" value="" style="endArrow=classic;html=1;rounded=0;exitX=1;exitY=0.25;exitDx=0;exitDy=0;entryX=0;entryY=0;entryDx=0;entryDy=40;entryPerimeter=0;" edge="1" parent="1" source="6EeHm703AvGRG8vDZVF_-6" target="6EeHm703AvGRG8vDZVF_-9">
          <mxGeometry width="50" height="50" relative="1" as="geometry">
            <mxPoint x="190" y="305" as="sourcePoint" />
            <mxPoint x="280" y="305" as="targetPoint" />
          </mxGeometry>
        </mxCell>
        <mxCell id="6EeHm703AvGRG8vDZVF_-15" value="Stitch" style="edgeLabel;html=1;align=center;verticalAlign=middle;resizable=0;points=[];" vertex="1" connectable="0" parent="6EeHm703AvGRG8vDZVF_-14">
          <mxGeometry x="-0.1714" y="-2" relative="1" as="geometry">
            <mxPoint x="12" y="-2" as="offset" />
          </mxGeometry>
        </mxCell>
        <mxCell id="6EeHm703AvGRG8vDZVF_-16" value="Dataset" style="swimlane;strokeColor=default;glass=0;" vertex="1" parent="1">
          <mxGeometry x="20" y="180" width="210" height="480" as="geometry">
            <mxRectangle x="30" y="450" width="80" height="23" as="alternateBounds" />
          </mxGeometry>
        </mxCell>
        <mxCell id="6EeHm703AvGRG8vDZVF_-17" value="" style="group" vertex="1" connectable="0" parent="6EeHm703AvGRG8vDZVF_-16">
          <mxGeometry x="10" y="190" width="200" height="130" as="geometry" />
        </mxCell>
        <mxCell id="6EeHm703AvGRG8vDZVF_-18" value="" style="group" vertex="1" connectable="0" parent="6EeHm703AvGRG8vDZVF_-17">
          <mxGeometry x="40" y="30" width="100" height="100" as="geometry" />
        </mxCell>
        <mxCell id="6EeHm703AvGRG8vDZVF_-19" value="" style="whiteSpace=wrap;html=1;aspect=fixed;" vertex="1" parent="6EeHm703AvGRG8vDZVF_-18">
          <mxGeometry width="80" height="80" as="geometry" />
        </mxCell>
        <mxCell id="6EeHm703AvGRG8vDZVF_-20" value="" style="whiteSpace=wrap;html=1;aspect=fixed;" vertex="1" parent="6EeHm703AvGRG8vDZVF_-18">
          <mxGeometry x="10" y="10" width="80" height="80" as="geometry" />
        </mxCell>
        <mxCell id="6EeHm703AvGRG8vDZVF_-21" value="" style="whiteSpace=wrap;html=1;aspect=fixed;" vertex="1" parent="6EeHm703AvGRG8vDZVF_-18">
          <mxGeometry x="20" y="20" width="80" height="80" as="geometry" />
        </mxCell>
        <mxCell id="6EeHm703AvGRG8vDZVF_-22" value="Y&lt;span style=&quot;font-size: 10px&quot;&gt;&lt;sub&gt;1&lt;/sub&gt;&lt;/span&gt;: Label Dataset&lt;br&gt;(Instance Segmentation Mask)" style="text;html=1;strokeColor=none;fillColor=none;align=center;verticalAlign=middle;whiteSpace=wrap;rounded=0;" vertex="1" parent="6EeHm703AvGRG8vDZVF_-17">
          <mxGeometry x="-6.869999999999999" width="193.75" height="30" as="geometry" />
        </mxCell>
        <mxCell id="6EeHm703AvGRG8vDZVF_-23" value="" style="group" vertex="1" connectable="0" parent="6EeHm703AvGRG8vDZVF_-16">
          <mxGeometry x="47.5" y="340" width="105" height="120" as="geometry" />
        </mxCell>
        <mxCell id="6EeHm703AvGRG8vDZVF_-24" value="" style="group" vertex="1" connectable="0" parent="6EeHm703AvGRG8vDZVF_-23">
          <mxGeometry x="20" y="30" width="60" height="90" as="geometry" />
        </mxCell>
        <mxCell id="6EeHm703AvGRG8vDZVF_-25" value="" style="shape=cylinder3;whiteSpace=wrap;html=1;boundedLbl=1;backgroundOutline=1;size=15;strokeColor=default;" vertex="1" parent="6EeHm703AvGRG8vDZVF_-24">
          <mxGeometry y="40" width="60" height="50" as="geometry" />
        </mxCell>
        <mxCell id="6EeHm703AvGRG8vDZVF_-26" value="" style="shape=cylinder3;whiteSpace=wrap;html=1;boundedLbl=1;backgroundOutline=1;size=15;strokeColor=default;" vertex="1" parent="6EeHm703AvGRG8vDZVF_-24">
          <mxGeometry y="20" width="60" height="50" as="geometry" />
        </mxCell>
        <mxCell id="6EeHm703AvGRG8vDZVF_-27" value="" style="shape=cylinder3;whiteSpace=wrap;html=1;boundedLbl=1;backgroundOutline=1;size=15;strokeColor=default;" vertex="1" parent="6EeHm703AvGRG8vDZVF_-24">
          <mxGeometry width="60" height="50" as="geometry" />
        </mxCell>
        <mxCell id="6EeHm703AvGRG8vDZVF_-28" value="Y&lt;sub&gt;2&lt;/sub&gt;: Target Dataset&lt;br&gt;(Feature Properties)" style="text;html=1;strokeColor=none;fillColor=none;align=center;verticalAlign=middle;whiteSpace=wrap;rounded=0;" vertex="1" parent="6EeHm703AvGRG8vDZVF_-23">
          <mxGeometry x="-5" width="115" height="30" as="geometry" />
        </mxCell>
        <mxCell id="6EeHm703AvGRG8vDZVF_-29" value="" style="group" vertex="1" connectable="0" parent="1">
          <mxGeometry x="340" y="370" width="110" height="130" as="geometry" />
        </mxCell>
        <mxCell id="6EeHm703AvGRG8vDZVF_-30" value="" style="shape=cube;whiteSpace=wrap;html=1;boundedLbl=1;backgroundOutline=1;darkOpacity=0.05;darkOpacity2=0.1;size=20;" vertex="1" parent="6EeHm703AvGRG8vDZVF_-29">
          <mxGeometry y="30" width="100" height="100" as="geometry" />
        </mxCell>
        <mxCell id="6EeHm703AvGRG8vDZVF_-31" value="3D Raw Label Map" style="text;html=1;strokeColor=none;fillColor=none;align=center;verticalAlign=middle;whiteSpace=wrap;rounded=0;" vertex="1" parent="6EeHm703AvGRG8vDZVF_-29">
          <mxGeometry x="-5" width="110" height="30" as="geometry" />
        </mxCell>
        <mxCell id="6EeHm703AvGRG8vDZVF_-32" value="" style="endArrow=classic;html=1;rounded=0;entryX=-0.013;entryY=0.454;entryDx=0;entryDy=0;entryPerimeter=0;exitX=1.022;exitY=0.318;exitDx=0;exitDy=0;exitPerimeter=0;" edge="1" parent="1" source="6EeHm703AvGRG8vDZVF_-21" target="6EeHm703AvGRG8vDZVF_-30">
          <mxGeometry width="50" height="50" relative="1" as="geometry">
            <mxPoint x="180" y="460" as="sourcePoint" />
            <mxPoint x="345" y="460" as="targetPoint" />
          </mxGeometry>
        </mxCell>
        <mxCell id="6EeHm703AvGRG8vDZVF_-33" value="Stitch" style="edgeLabel;html=1;align=center;verticalAlign=middle;resizable=0;points=[];" vertex="1" connectable="0" parent="6EeHm703AvGRG8vDZVF_-32">
          <mxGeometry x="-0.1714" y="-2" relative="1" as="geometry">
            <mxPoint x="12" y="-2" as="offset" />
          </mxGeometry>
        </mxCell>
        <mxCell id="6EeHm703AvGRG8vDZVF_-34" value="3D Mask R-CNN" style="triangle;whiteSpace=wrap;html=1;glass=0;strokeColor=#b85450;align=left;fillColor=#f8cecc;" vertex="1" parent="1">
          <mxGeometry x="550" y="330" width="110" height="80" as="geometry" />
        </mxCell>
        <mxCell id="6EeHm703AvGRG8vDZVF_-35" value="X" style="endArrow=classic;html=1;rounded=0;exitX=0;exitY=0;exitDx=100;exitDy=60;exitPerimeter=0;entryX=0;entryY=0.25;entryDx=0;entryDy=0;" edge="1" parent="1" source="6EeHm703AvGRG8vDZVF_-9" target="6EeHm703AvGRG8vDZVF_-34">
          <mxGeometry width="50" height="50" relative="1" as="geometry">
            <mxPoint x="480" y="380" as="sourcePoint" />
            <mxPoint x="530" y="330" as="targetPoint" />
          </mxGeometry>
        </mxCell>
        <mxCell id="6EeHm703AvGRG8vDZVF_-36" value="" style="endArrow=classic;html=1;rounded=0;exitX=0;exitY=0;exitDx=100;exitDy=60;exitPerimeter=0;entryX=0;entryY=0.75;entryDx=0;entryDy=0;" edge="1" parent="1" source="6EeHm703AvGRG8vDZVF_-30" target="6EeHm703AvGRG8vDZVF_-34">
          <mxGeometry width="50" height="50" relative="1" as="geometry">
            <mxPoint x="480" y="380" as="sourcePoint" />
            <mxPoint x="530" y="330" as="targetPoint" />
          </mxGeometry>
        </mxCell>
        <mxCell id="6EeHm703AvGRG8vDZVF_-37" value="Y" style="edgeLabel;html=1;align=center;verticalAlign=middle;resizable=0;points=[];" vertex="1" connectable="0" parent="6EeHm703AvGRG8vDZVF_-36">
          <mxGeometry x="-0.1305" y="2" relative="1" as="geometry">
            <mxPoint as="offset" />
          </mxGeometry>
        </mxCell>
        <mxCell id="6EeHm703AvGRG8vDZVF_-38" value="Connectome Model" style="shape=card;whiteSpace=wrap;html=1;glass=0;strokeColor=default;" vertex="1" parent="1">
          <mxGeometry x="1580" y="490" width="80" height="100" as="geometry" />
        </mxCell>
        <mxCell id="6EeHm703AvGRG8vDZVF_-39" value="Predict" style="endArrow=classic;html=1;rounded=0;exitX=1;exitY=0.5;exitDx=0;exitDy=0;entryX=-0.007;entryY=0.452;entryDx=0;entryDy=0;entryPerimeter=0;" edge="1" parent="1" source="6EeHm703AvGRG8vDZVF_-34" target="6EeHm703AvGRG8vDZVF_-12">
          <mxGeometry width="50" height="50" relative="1" as="geometry">
            <mxPoint x="520" y="380" as="sourcePoint" />
            <mxPoint x="570" y="330" as="targetPoint" />
          </mxGeometry>
        </mxCell>
        <mxCell id="6EeHm703AvGRG8vDZVF_-40" value="CNN" style="triangle;whiteSpace=wrap;html=1;glass=0;strokeColor=#b85450;align=left;fillColor=#f8cecc;" vertex="1" parent="1">
          <mxGeometry x="1180" y="490" width="40" height="80" as="geometry" />
        </mxCell>
        <mxCell id="6EeHm703AvGRG8vDZVF_-41" value="" style="group" vertex="1" connectable="0" parent="1">
          <mxGeometry x="1100" y="295" width="130" height="130" as="geometry" />
        </mxCell>
        <mxCell id="6EeHm703AvGRG8vDZVF_-42" value="" style="shape=cube;whiteSpace=wrap;html=1;boundedLbl=1;backgroundOutline=1;darkOpacity=0.05;darkOpacity2=0.1;size=20;dashed=1;" vertex="1" parent="6EeHm703AvGRG8vDZVF_-41">
          <mxGeometry y="30" width="100" height="100" as="geometry" />
        </mxCell>
        <mxCell id="6EeHm703AvGRG8vDZVF_-43" value="3D Instance Segmentation Map" style="text;html=1;strokeColor=none;fillColor=none;align=center;verticalAlign=middle;whiteSpace=wrap;rounded=0;" vertex="1" parent="6EeHm703AvGRG8vDZVF_-41">
          <mxGeometry x="-15" width="130" height="30" as="geometry" />
        </mxCell>
        <mxCell id="6EeHm703AvGRG8vDZVF_-44" value="Ground Truth" style="endArrow=classic;html=1;rounded=0;exitX=0;exitY=0;exitDx=100;exitDy=60;exitPerimeter=0;entryX=0;entryY=0.5;entryDx=0;entryDy=0;" edge="1" parent="1" source="6EeHm703AvGRG8vDZVF_-30" target="6EeHm703AvGRG8vDZVF_-58">
          <mxGeometry width="50" height="50" relative="1" as="geometry">
            <mxPoint x="650" y="565" as="sourcePoint" />
            <mxPoint x="700" y="515" as="targetPoint" />
          </mxGeometry>
        </mxCell>
        <mxCell id="6EeHm703AvGRG8vDZVF_-45" value="Prediction" style="endArrow=classic;html=1;rounded=0;exitX=1;exitY=1;exitDx=0;exitDy=0;exitPerimeter=0;entryX=0;entryY=0;entryDx=0;entryDy=0;" edge="1" parent="1" source="6EeHm703AvGRG8vDZVF_-12" target="6EeHm703AvGRG8vDZVF_-58">
          <mxGeometry width="50" height="50" relative="1" as="geometry">
            <mxPoint x="700" y="475" as="sourcePoint" />
            <mxPoint x="750" y="425" as="targetPoint" />
          </mxGeometry>
        </mxCell>
        <mxCell id="6EeHm703AvGRG8vDZVF_-46" value="Overlay" style="triangle;whiteSpace=wrap;html=1;glass=0;strokeColor=default;align=left;" vertex="1" parent="1">
          <mxGeometry x="940" y="240" width="60" height="80" as="geometry" />
        </mxCell>
        <mxCell id="6EeHm703AvGRG8vDZVF_-47" value="Feature" style="endArrow=classic;html=1;rounded=0;exitX=0;exitY=0;exitDx=100;exitDy=60;exitPerimeter=0;entryX=0;entryY=0.5;entryDx=0;entryDy=0;" edge="1" parent="1" source="6EeHm703AvGRG8vDZVF_-9" target="6EeHm703AvGRG8vDZVF_-46">
          <mxGeometry width="50" height="50" relative="1" as="geometry">
            <mxPoint x="790" y="380" as="sourcePoint" />
            <mxPoint x="840" y="330" as="targetPoint" />
          </mxGeometry>
        </mxCell>
        <mxCell id="6EeHm703AvGRG8vDZVF_-48" value="Mask" style="endArrow=classic;html=1;rounded=0;exitX=0;exitY=0;exitDx=100;exitDy=60;exitPerimeter=0;entryX=0.014;entryY=0.96;entryDx=0;entryDy=0;entryPerimeter=0;" edge="1" parent="1" source="6EeHm703AvGRG8vDZVF_-12" target="6EeHm703AvGRG8vDZVF_-46">
          <mxGeometry width="50" height="50" relative="1" as="geometry">
            <mxPoint x="950" y="395" as="sourcePoint" />
            <mxPoint x="1000" y="345" as="targetPoint" />
          </mxGeometry>
        </mxCell>
        <mxCell id="6EeHm703AvGRG8vDZVF_-49" value="Map" style="endArrow=classic;html=1;rounded=0;exitX=1;exitY=0.5;exitDx=0;exitDy=0;entryX=0.008;entryY=0.46;entryDx=0;entryDy=0;entryPerimeter=0;" edge="1" parent="1" source="6EeHm703AvGRG8vDZVF_-46" target="6EeHm703AvGRG8vDZVF_-42">
          <mxGeometry width="50" height="50" relative="1" as="geometry">
            <mxPoint x="1060" y="140" as="sourcePoint" />
            <mxPoint x="1110" y="90" as="targetPoint" />
          </mxGeometry>
        </mxCell>
        <mxCell id="6EeHm703AvGRG8vDZVF_-50" value="Y" style="endArrow=classic;html=1;rounded=0;exitX=1;exitY=0;exitDx=0;exitDy=30;exitPerimeter=0;entryX=0;entryY=0.75;entryDx=0;entryDy=0;" edge="1" parent="1" source="6EeHm703AvGRG8vDZVF_-26" target="6EeHm703AvGRG8vDZVF_-40">
          <mxGeometry width="50" height="50" relative="1" as="geometry">
            <mxPoint x="590" y="660" as="sourcePoint" />
            <mxPoint x="640" y="610" as="targetPoint" />
          </mxGeometry>
        </mxCell>
        <mxCell id="6EeHm703AvGRG8vDZVF_-51" value="" style="group" vertex="1" connectable="0" parent="1">
          <mxGeometry x="1360" y="460" width="130" height="130" as="geometry" />
        </mxCell>
        <mxCell id="6EeHm703AvGRG8vDZVF_-52" value="" style="shape=cube;whiteSpace=wrap;html=1;boundedLbl=1;backgroundOutline=1;darkOpacity=0.05;darkOpacity2=0.1;size=20;dashed=1;" vertex="1" parent="6EeHm703AvGRG8vDZVF_-51">
          <mxGeometry y="30" width="100" height="100" as="geometry" />
        </mxCell>
        <mxCell id="6EeHm703AvGRG8vDZVF_-53" value="3D Feature Properties Map" style="text;html=1;strokeColor=none;fillColor=none;align=center;verticalAlign=middle;whiteSpace=wrap;rounded=0;" vertex="1" parent="6EeHm703AvGRG8vDZVF_-51">
          <mxGeometry x="-15" width="130" height="30" as="geometry" />
        </mxCell>
        <mxCell id="6EeHm703AvGRG8vDZVF_-54" value="X" style="endArrow=classic;html=1;rounded=0;exitX=0;exitY=0;exitDx=60;exitDy=100;exitPerimeter=0;entryX=-0.042;entryY=-0.04;entryDx=0;entryDy=0;entryPerimeter=0;" edge="1" parent="1" source="6EeHm703AvGRG8vDZVF_-42" target="6EeHm703AvGRG8vDZVF_-40">
          <mxGeometry width="50" height="50" relative="1" as="geometry">
            <mxPoint x="1250" y="460" as="sourcePoint" />
            <mxPoint x="1300" y="410" as="targetPoint" />
          </mxGeometry>
        </mxCell>
        <mxCell id="6EeHm703AvGRG8vDZVF_-55" value="Predict" style="endArrow=classic;html=1;rounded=0;exitX=1;exitY=0.5;exitDx=0;exitDy=0;entryX=0;entryY=0;entryDx=0;entryDy=40;entryPerimeter=0;" edge="1" parent="1" source="6EeHm703AvGRG8vDZVF_-40" target="6EeHm703AvGRG8vDZVF_-52">
          <mxGeometry width="50" height="50" relative="1" as="geometry">
            <mxPoint x="1360" y="430" as="sourcePoint" />
            <mxPoint x="1410" y="380" as="targetPoint" />
          </mxGeometry>
        </mxCell>
        <mxCell id="6EeHm703AvGRG8vDZVF_-56" value="Compress" style="endArrow=classic;html=1;rounded=0;exitX=0.992;exitY=0.51;exitDx=0;exitDy=0;exitPerimeter=0;entryX=0;entryY=0;entryDx=0;entryDy=65;entryPerimeter=0;" edge="1" parent="1" source="6EeHm703AvGRG8vDZVF_-52" target="6EeHm703AvGRG8vDZVF_-38">
          <mxGeometry width="50" height="50" relative="1" as="geometry">
            <mxPoint x="1540" y="370" as="sourcePoint" />
            <mxPoint x="1590" y="320" as="targetPoint" />
          </mxGeometry>
        </mxCell>
        <mxCell id="6EeHm703AvGRG8vDZVF_-57" value="Training" style="swimlane;glass=0;strokeColor=default;" vertex="1" parent="1">
          <mxGeometry x="10" y="150" width="1670" height="520" as="geometry" />
        </mxCell>
        <mxCell id="6EeHm703AvGRG8vDZVF_-58" value="Evaluate&lt;br&gt;(IoU)" style="rhombus;whiteSpace=wrap;html=1;glass=0;strokeColor=default;" vertex="1" parent="6EeHm703AvGRG8vDZVF_-57">
          <mxGeometry x="960" y="285" width="80" height="80" as="geometry" />
        </mxCell>
        <mxCell id="6EeHm703AvGRG8vDZVF_-59" value="" style="group" vertex="1" connectable="0" parent="1">
          <mxGeometry x="30" y="865" width="200" height="130" as="geometry" />
        </mxCell>
        <mxCell id="6EeHm703AvGRG8vDZVF_-60" value="" style="group" vertex="1" connectable="0" parent="6EeHm703AvGRG8vDZVF_-59">
          <mxGeometry x="40" y="30" width="100" height="100" as="geometry" />
        </mxCell>
        <mxCell id="6EeHm703AvGRG8vDZVF_-61" value="" style="whiteSpace=wrap;html=1;aspect=fixed;" vertex="1" parent="6EeHm703AvGRG8vDZVF_-60">
          <mxGeometry width="80" height="80" as="geometry" />
        </mxCell>
        <mxCell id="6EeHm703AvGRG8vDZVF_-62" value="" style="whiteSpace=wrap;html=1;aspect=fixed;" vertex="1" parent="6EeHm703AvGRG8vDZVF_-60">
          <mxGeometry x="10" y="10" width="80" height="80" as="geometry" />
        </mxCell>
        <mxCell id="6EeHm703AvGRG8vDZVF_-63" value="" style="whiteSpace=wrap;html=1;aspect=fixed;" vertex="1" parent="6EeHm703AvGRG8vDZVF_-60">
          <mxGeometry x="20" y="20" width="80" height="80" as="geometry" />
        </mxCell>
        <mxCell id="6EeHm703AvGRG8vDZVF_-64" value="X: Feature Dataset&lt;br&gt;(Raw Electron Microscope Images)" style="text;html=1;strokeColor=none;fillColor=none;align=center;verticalAlign=middle;whiteSpace=wrap;rounded=0;" vertex="1" parent="6EeHm703AvGRG8vDZVF_-59">
          <mxGeometry x="-6.869999999999999" width="193.75" height="30" as="geometry" />
        </mxCell>
        <mxCell id="6EeHm703AvGRG8vDZVF_-65" value="" style="group" vertex="1" connectable="0" parent="1">
          <mxGeometry x="335" y="865" width="130" height="130" as="geometry" />
        </mxCell>
        <mxCell id="6EeHm703AvGRG8vDZVF_-66" value="" style="shape=cube;whiteSpace=wrap;html=1;boundedLbl=1;backgroundOutline=1;darkOpacity=0.05;darkOpacity2=0.1;size=20;" vertex="1" parent="6EeHm703AvGRG8vDZVF_-65">
          <mxGeometry y="30" width="100" height="100" as="geometry" />
        </mxCell>
        <mxCell id="6EeHm703AvGRG8vDZVF_-67" value="3D Raw Feature Map" style="text;html=1;strokeColor=none;fillColor=none;align=center;verticalAlign=middle;whiteSpace=wrap;rounded=0;" vertex="1" parent="6EeHm703AvGRG8vDZVF_-65">
          <mxGeometry x="-15" width="130" height="30" as="geometry" />
        </mxCell>
        <mxCell id="6EeHm703AvGRG8vDZVF_-68" value="" style="group" vertex="1" connectable="0" parent="1">
          <mxGeometry x="790" y="945" width="130" height="130" as="geometry" />
        </mxCell>
        <mxCell id="6EeHm703AvGRG8vDZVF_-69" value="" style="shape=cube;whiteSpace=wrap;html=1;boundedLbl=1;backgroundOutline=1;darkOpacity=0.05;darkOpacity2=0.1;size=20;" vertex="1" parent="6EeHm703AvGRG8vDZVF_-68">
          <mxGeometry y="30" width="100" height="100" as="geometry" />
        </mxCell>
        <mxCell id="6EeHm703AvGRG8vDZVF_-70" value="3D Predicted Label Map" style="text;html=1;strokeColor=none;fillColor=none;align=center;verticalAlign=middle;whiteSpace=wrap;rounded=0;" vertex="1" parent="6EeHm703AvGRG8vDZVF_-68">
          <mxGeometry x="-15" width="130" height="30" as="geometry" />
        </mxCell>
        <mxCell id="6EeHm703AvGRG8vDZVF_-71" value="" style="endArrow=classic;html=1;rounded=0;exitX=1;exitY=0.25;exitDx=0;exitDy=0;entryX=0;entryY=0;entryDx=0;entryDy=40;entryPerimeter=0;" edge="1" parent="1" source="6EeHm703AvGRG8vDZVF_-63" target="6EeHm703AvGRG8vDZVF_-66">
          <mxGeometry width="50" height="50" relative="1" as="geometry">
            <mxPoint x="190" y="955" as="sourcePoint" />
            <mxPoint x="280" y="955" as="targetPoint" />
          </mxGeometry>
        </mxCell>
        <mxCell id="6EeHm703AvGRG8vDZVF_-72" value="Stitch" style="edgeLabel;html=1;align=center;verticalAlign=middle;resizable=0;points=[];" vertex="1" connectable="0" parent="6EeHm703AvGRG8vDZVF_-71">
          <mxGeometry x="-0.1714" y="-2" relative="1" as="geometry">
            <mxPoint x="12" y="-2" as="offset" />
          </mxGeometry>
        </mxCell>
        <mxCell id="6EeHm703AvGRG8vDZVF_-73" value="Dataset" style="swimlane;strokeColor=default;glass=0;" vertex="1" parent="1">
          <mxGeometry x="20" y="830" width="210" height="260" as="geometry">
            <mxRectangle x="30" y="450" width="80" height="23" as="alternateBounds" />
          </mxGeometry>
        </mxCell>
        <mxCell id="6EeHm703AvGRG8vDZVF_-74" value="3D Mask R-CNN" style="triangle;whiteSpace=wrap;html=1;glass=0;strokeColor=#82b366;align=left;fillColor=#d5e8d4;" vertex="1" parent="1">
          <mxGeometry x="550" y="980" width="110" height="80" as="geometry" />
        </mxCell>
        <mxCell id="6EeHm703AvGRG8vDZVF_-75" value="X" style="endArrow=classic;html=1;rounded=0;exitX=0;exitY=0;exitDx=100;exitDy=60;exitPerimeter=0;entryX=0;entryY=0.25;entryDx=0;entryDy=0;" edge="1" parent="1" source="6EeHm703AvGRG8vDZVF_-66" target="6EeHm703AvGRG8vDZVF_-74">
          <mxGeometry width="50" height="50" relative="1" as="geometry">
            <mxPoint x="480" y="1030" as="sourcePoint" />
            <mxPoint x="530" y="980" as="targetPoint" />
          </mxGeometry>
        </mxCell>
        <mxCell id="6EeHm703AvGRG8vDZVF_-76" value="Predict" style="endArrow=classic;html=1;rounded=0;exitX=1;exitY=0.5;exitDx=0;exitDy=0;entryX=-0.007;entryY=0.452;entryDx=0;entryDy=0;entryPerimeter=0;" edge="1" parent="1" source="6EeHm703AvGRG8vDZVF_-74" target="6EeHm703AvGRG8vDZVF_-69">
          <mxGeometry width="50" height="50" relative="1" as="geometry">
            <mxPoint x="520" y="1030" as="sourcePoint" />
            <mxPoint x="570" y="980" as="targetPoint" />
          </mxGeometry>
        </mxCell>
        <mxCell id="6EeHm703AvGRG8vDZVF_-77" value="Overlay" style="triangle;whiteSpace=wrap;html=1;glass=0;strokeColor=default;align=left;" vertex="1" parent="1">
          <mxGeometry x="940" y="890" width="60" height="80" as="geometry" />
        </mxCell>
        <mxCell id="6EeHm703AvGRG8vDZVF_-78" value="Feature" style="endArrow=classic;html=1;rounded=0;exitX=0;exitY=0;exitDx=100;exitDy=60;exitPerimeter=0;entryX=0;entryY=0.5;entryDx=0;entryDy=0;" edge="1" parent="1" source="6EeHm703AvGRG8vDZVF_-66" target="6EeHm703AvGRG8vDZVF_-77">
          <mxGeometry width="50" height="50" relative="1" as="geometry">
            <mxPoint x="790" y="1030" as="sourcePoint" />
            <mxPoint x="840" y="980" as="targetPoint" />
          </mxGeometry>
        </mxCell>
        <mxCell id="6EeHm703AvGRG8vDZVF_-79" value="Mask" style="endArrow=classic;html=1;rounded=0;exitX=0;exitY=0;exitDx=100;exitDy=60;exitPerimeter=0;entryX=0.014;entryY=0.96;entryDx=0;entryDy=0;entryPerimeter=0;" edge="1" parent="1" source="6EeHm703AvGRG8vDZVF_-69" target="6EeHm703AvGRG8vDZVF_-77">
          <mxGeometry width="50" height="50" relative="1" as="geometry">
            <mxPoint x="950" y="1045" as="sourcePoint" />
            <mxPoint x="1000" y="995" as="targetPoint" />
          </mxGeometry>
        </mxCell>
        <mxCell id="6EeHm703AvGRG8vDZVF_-80" value="Map" style="endArrow=classic;html=1;rounded=0;exitX=1;exitY=0.5;exitDx=0;exitDy=0;entryX=0.008;entryY=0.46;entryDx=0;entryDy=0;entryPerimeter=0;" edge="1" parent="1" source="6EeHm703AvGRG8vDZVF_-77" target="6EeHm703AvGRG8vDZVF_-83">
          <mxGeometry width="50" height="50" relative="1" as="geometry">
            <mxPoint x="1060" y="790" as="sourcePoint" />
            <mxPoint x="1110" y="740" as="targetPoint" />
          </mxGeometry>
        </mxCell>
        <mxCell id="6EeHm703AvGRG8vDZVF_-81" value="System" style="swimlane;glass=0;strokeColor=default;" vertex="1" parent="1">
          <mxGeometry x="10" y="800" width="1670" height="300" as="geometry" />
        </mxCell>
        <mxCell id="6EeHm703AvGRG8vDZVF_-82" value="" style="group" vertex="1" connectable="0" parent="6EeHm703AvGRG8vDZVF_-81">
          <mxGeometry x="1045" y="55" width="130" height="130" as="geometry" />
        </mxCell>
        <mxCell id="6EeHm703AvGRG8vDZVF_-83" value="" style="shape=cube;whiteSpace=wrap;html=1;boundedLbl=1;backgroundOutline=1;darkOpacity=0.05;darkOpacity2=0.1;size=20;dashed=1;" vertex="1" parent="6EeHm703AvGRG8vDZVF_-82">
          <mxGeometry y="30" width="100" height="100" as="geometry" />
        </mxCell>
        <mxCell id="6EeHm703AvGRG8vDZVF_-84" value="3D Instance Segmentation Map" style="text;html=1;strokeColor=none;fillColor=none;align=center;verticalAlign=middle;whiteSpace=wrap;rounded=0;" vertex="1" parent="6EeHm703AvGRG8vDZVF_-82">
          <mxGeometry x="-15" width="130" height="30" as="geometry" />
        </mxCell>
        <mxCell id="6EeHm703AvGRG8vDZVF_-85" value="CNN" style="triangle;whiteSpace=wrap;html=1;glass=0;strokeColor=#82b366;align=left;fillColor=#d5e8d4;" vertex="1" parent="6EeHm703AvGRG8vDZVF_-81">
          <mxGeometry x="1230" y="105" width="40" height="80" as="geometry" />
        </mxCell>
        <mxCell id="6EeHm703AvGRG8vDZVF_-86" value="X" style="endArrow=classic;html=1;rounded=0;exitX=0;exitY=0;exitDx=100;exitDy=60;exitPerimeter=0;entryX=0;entryY=0.5;entryDx=0;entryDy=0;" edge="1" parent="6EeHm703AvGRG8vDZVF_-81" source="6EeHm703AvGRG8vDZVF_-83" target="6EeHm703AvGRG8vDZVF_-85">
          <mxGeometry width="50" height="50" relative="1" as="geometry">
            <mxPoint x="1240" y="310" as="sourcePoint" />
            <mxPoint x="1290" y="260" as="targetPoint" />
          </mxGeometry>
        </mxCell>
        <mxCell id="6EeHm703AvGRG8vDZVF_-87" value="" style="group" vertex="1" connectable="0" parent="6EeHm703AvGRG8vDZVF_-81">
          <mxGeometry x="1365" y="80" width="130" height="130" as="geometry" />
        </mxCell>
        <mxCell id="6EeHm703AvGRG8vDZVF_-88" value="" style="shape=cube;whiteSpace=wrap;html=1;boundedLbl=1;backgroundOutline=1;darkOpacity=0.05;darkOpacity2=0.1;size=20;dashed=1;" vertex="1" parent="6EeHm703AvGRG8vDZVF_-87">
          <mxGeometry y="30" width="100" height="100" as="geometry" />
        </mxCell>
        <mxCell id="6EeHm703AvGRG8vDZVF_-89" value="3D Feature Properties Map" style="text;html=1;strokeColor=none;fillColor=none;align=center;verticalAlign=middle;whiteSpace=wrap;rounded=0;" vertex="1" parent="6EeHm703AvGRG8vDZVF_-87">
          <mxGeometry x="-15" width="130" height="30" as="geometry" />
        </mxCell>
        <mxCell id="6EeHm703AvGRG8vDZVF_-90" value="Predict" style="endArrow=classic;html=1;rounded=0;exitX=1;exitY=0.5;exitDx=0;exitDy=0;entryX=0;entryY=0;entryDx=0;entryDy=40;entryPerimeter=0;" edge="1" parent="6EeHm703AvGRG8vDZVF_-81" source="6EeHm703AvGRG8vDZVF_-85" target="6EeHm703AvGRG8vDZVF_-88">
          <mxGeometry width="50" height="50" relative="1" as="geometry">
            <mxPoint x="1350" y="280" as="sourcePoint" />
            <mxPoint x="1400" y="230" as="targetPoint" />
          </mxGeometry>
        </mxCell>
        <mxCell id="6EeHm703AvGRG8vDZVF_-91" value="Connectome Model" style="shape=card;whiteSpace=wrap;html=1;glass=0;strokeColor=default;" vertex="1" parent="6EeHm703AvGRG8vDZVF_-81">
          <mxGeometry x="1565" y="95" width="80" height="100" as="geometry" />
        </mxCell>
        <mxCell id="6EeHm703AvGRG8vDZVF_-92" value="Compress" style="endArrow=classic;html=1;rounded=0;exitX=0.992;exitY=0.51;exitDx=0;exitDy=0;exitPerimeter=0;entryX=0;entryY=0;entryDx=0;entryDy=65;entryPerimeter=0;" edge="1" parent="6EeHm703AvGRG8vDZVF_-81" source="6EeHm703AvGRG8vDZVF_-88" target="6EeHm703AvGRG8vDZVF_-91">
          <mxGeometry width="50" height="50" relative="1" as="geometry">
            <mxPoint x="1530" y="220" as="sourcePoint" />
            <mxPoint x="1580" y="170" as="targetPoint" />
          </mxGeometry>
        </mxCell>
        <mxCell id="6EeHm703AvGRG8vDZVF_-93" value="Classification" style="swimlane;rounded=0;shadow=0;glass=0;sketch=0;strokeColor=default;opacity=60;" vertex="1" parent="6EeHm703AvGRG8vDZVF_-81">
          <mxGeometry x="265" y="30" width="905" height="260" as="geometry" />
        </mxCell>
        <mxCell id="6EeHm703AvGRG8vDZVF_-94" value="Regression" style="swimlane;rounded=0;shadow=0;glass=0;sketch=0;strokeColor=default;opacity=60;" vertex="1" parent="6EeHm703AvGRG8vDZVF_-81">
          <mxGeometry x="1205" y="30" width="455" height="260" as="geometry" />
        </mxCell>
        <mxCell id="6EeHm703AvGRG8vDZVF_-95" value="&lt;h1&gt;System&lt;/h1&gt;&lt;p&gt;After the classification and regression models have been trained they can then be used to produce a connectome model from data we&#39;ve never seen before. Note that input data will likely need to be at the same resolution the convolutional neural networks were trained on, though this potential issue may be aleviated by training the system on a wide variety of datasets of varying resolutions and quality.&lt;/p&gt;" style="text;html=1;strokeColor=none;fillColor=none;spacing=5;spacingTop=-20;whiteSpace=wrap;overflow=hidden;rounded=0;" vertex="1" parent="1">
          <mxGeometry x="10" y="700" width="810" height="100" as="geometry" />
        </mxCell>
      </root>
    </mxGraphModel>
  </diagram>
</mxfile>
